# xmcd
#
# Track frame offsets:
#	150
#	23255
#	43500
#	60122
#	81392
#	99317
#	124075
#	142857
#	166427
#	187995
#	209032
#	247142
#
# Disc length: 3570 seconds
#
# Revision: 1
# Processed by: cddbd v1.5.1PL0 Copyright (c) Steve Scherf et al.
# Submitted via: CDex 1.50Beta5
#
DISCID=980df00c
DTITLE=須川展也 - シシュポスの夢
DYEAR=1994
DGENRE=
TTITLE0=星に願いを
TTITLE1=宵
TTITLE2=ラビン・ユー
TTITLE3=マイ・ラブ
TTITLE4=オネスティ
TTITLE5=シーガル
TTITLE6=僕の歌は君の歌
TTITLE7=エンドレス・ラブ
TTITLE8=シシュポスの夢
TTITLE9=ウィズアウト・ユー
TTITLE10=安息日
TTITLE11=ラブ
EXTD=
EXTT0=
EXTT1=
EXTT2=
EXTT3=
EXTT4=
EXTT5=
EXTT6=
EXTT7=
EXTT8=
EXTT9=
EXTT10=
EXTT11=
PLAYORDER=
